<svg width="32" height="24" viewBox="0 0 34 28" fill="none" xmlns="http://www.w3.org/2000/svg">
<path d="M33.4575 15.3952L22.3199 27.4227C21.9621 27.8076 21.5148 28 21.0675 28C20.6202 28 20.1729 27.8076 19.8151 27.4227C19.0994 26.6529 19.0994 25.4502 19.8151 24.6804L27.9111 15.9244H1.78917C0.805128 15.9244 0 15.0584 0 14C0 12.9416 0.805128 12.0756 1.78917 12.0756H27.9111L19.8151 3.31959C19.0994 2.54983 19.0994 1.34708 19.8151 0.57732C20.5307 -0.19244 21.649 -0.19244 22.3647 0.57732L33.5023 12.6048C34.1732 13.4227 34.1732 14.6735 33.4575 15.3952Z" fill="black"/>
</svg>
